<?xml version="1.0" standalone="no"?>
<!DOCTYPE svg PUBLIC "-//W3C//DTD SVG 20010904//EN"
 "http://www.w3.org/TR/2001/REC-SVG-20010904/DTD/svg10.dtd">
<svg version="1.0" xmlns="http://www.w3.org/2000/svg"
 width="180.000000pt" height="180.000000pt" viewBox="0 0 180.000000 180.000000"
 preserveAspectRatio="xMidYMid meet">
<metadata>
Created by potrace 1.14, written by Peter Selinger 2001-2017
</metadata>
<g transform="translate(0.000000,180.000000) scale(0.100000,-0.100000)"
fill="#000000" stroke="none">
<path d="M80 1700 l0 -90 220 0 220 0 0 90 0 90 -220 0 -220 0 0 -90z"/>
<path d="M620 1700 l0 -90 250 0 250 0 0 90 0 90 -250 0 -250 0 0 -90z"/>
<path d="M1190 1700 l0 -90 250 0 250 0 0 90 0 90 -250 0 -250 0 0 -90z"/>
<path d="M80 1370 l0 -100 130 0 130 0 0 100 0 100 -130 0 -130 0 0 -100z"/>
<path d="M450 1370 l0 -100 140 0 140 0 0 100 0 100 -140 0 -140 0 0 -100z"/>
<path d="M820 1370 l0 -100 425 0 425 0 0 100 0 100 -425 0 -425 0 0 -100z"/>
<path d="M80 1090 l0 -90 510 0 510 0 0 90 0 90 -510 0 -510 0 0 -90z"/>
<path d="M1190 1090 l0 -90 250 0 250 0 0 90 0 90 -250 0 -250 0 0 -90z"/>
<path d="M80 770 l0 -90 80 0 80 0 0 90 0 90 -80 0 -80 0 0 -90z"/>
<path d="M340 770 l0 -90 375 0 375 0 0 90 0 90 -375 0 -375 0 0 -90z"/>
<path d="M80 400 l0 -90 510 0 510 0 0 90 0 90 -510 0 -510 0 0 -90z"/>
<path d="M1480 330 c0 -25 9 -36 59 -70 33 -22 62 -43 65 -48 2 -4 -12 -18
-31 -31 -19 -12 -32 -17 -28 -9 4 7 -4 1 -17 -14 -26 -29 -45 -38 -32 -16 4 7
3 9 -1 5 -5 -4 -10 -13 -11 -20 -1 -7 -6 -26 -9 -44 -7 -29 -5 -32 21 -35 16
-2 59 -2 97 0 58 3 67 6 67 22 0 16 -9 19 -62 22 l-63 3 60 39 c33 21 61 39
62 40 10 9 12 76 2 82 -8 5 -9 3 -4 -6 5 -7 -4 -5 -18 6 -15 10 -27 22 -27 27
0 4 -6 7 -14 7 -8 0 -16 3 -18 8 -3 8 -84 62 -93 62 -3 0 -5 -13 -5 -30z"/>
<path d="M80 110 l0 -100 220 0 220 0 0 100 0 100 -220 0 -220 0 0 -100z"/>
<path d="M640 110 l0 -100 220 0 220 0 0 100 0 100 -220 0 -220 0 0 -100z"/>
</g>
</svg>
